<?xml version="1.0" standalone="no"?>
<!DOCTYPE svg PUBLIC "-//W3C//DTD SVG 20010904//EN"
 "http://www.w3.org/TR/2001/REC-SVG-20010904/DTD/svg10.dtd">
<svg version="1.0" xmlns="http://www.w3.org/2000/svg"
 width="992.000000pt" height="992.000000pt" viewBox="0 0 992.000000 992.000000"
 preserveAspectRatio="xMidYMid meet">
<metadata>
Created by potrace 1.14, written by Peter Selinger 2001-2017
</metadata>
<g transform="translate(0.000000,992.000000) scale(0.100000,-0.100000)"
fill="#000000" stroke="none">
<path d="M6045 8416 c-77 -29 -112 -60 -250 -221 -33 -38 -64 -75 -70 -81 -36
-39 -137 -155 -161 -184 -16 -19 -36 -42 -44 -50 -8 -9 -26 -30 -40 -46 -33
-39 -154 -178 -160 -184 -3 -3 -34 -39 -70 -80 -36 -41 -67 -77 -70 -80 -3 -3
-48 -54 -100 -115 -52 -60 -99 -115 -105 -121 -5 -6 -35 -39 -65 -74 -30 -35
-59 -68 -65 -74 -5 -6 -35 -40 -65 -76 -50 -59 -83 -97 -147 -167 -11 -13 -35
-41 -53 -63 -17 -21 -43 -51 -58 -67 -15 -16 -52 -57 -82 -92 -30 -35 -65 -76
-78 -90 -13 -14 -37 -43 -55 -64 -18 -22 -48 -56 -67 -78 -19 -21 -42 -47 -50
-56 -8 -9 -45 -53 -83 -96 -37 -44 -73 -85 -80 -92 -7 -6 -34 -38 -62 -71 -27
-32 -57 -65 -65 -74 -8 -9 -69 -79 -135 -155 -66 -77 -130 -150 -142 -162 -13
-12 -23 -24 -23 -27 0 -3 -12 -18 -28 -34 -25 -27 -71 -80 -163 -187 -19 -21
-41 -46 -49 -55 -8 -9 -26 -30 -40 -46 -14 -16 -52 -61 -86 -99 -33 -39 -72
-83 -85 -99 -13 -16 -31 -36 -39 -45 -9 -9 -45 -50 -80 -91 -36 -41 -67 -77
-70 -80 -3 -3 -32 -36 -65 -75 -33 -38 -68 -79 -78 -90 -16 -17 -52 -58 -118
-136 -9 -11 -44 -50 -76 -87 -71 -80 -198 -225 -268 -307 -27 -32 -57 -65 -65
-74 -9 -9 -56 -63 -105 -121 -50 -58 -99 -115 -110 -127 -11 -11 -42 -47 -70
-79 -27 -31 -60 -68 -72 -81 -11 -13 -36 -42 -53 -63 -85 -104 -91 -108 -171
-114 -41 -3 -96 -8 -124 -11 -27 -2 -84 -7 -125 -10 -102 -6 -224 -15 -290
-20 -51 -5 -198 -13 -351 -19 -85 -4 -93 -9 -84 -55 4 -20 9 -46 11 -58 6 -37
12 -66 18 -93 4 -14 9 -38 12 -55 2 -16 19 -79 35 -140 17 -60 32 -117 34
-125 2 -8 14 -45 27 -82 20 -57 29 -71 71 -99 26 -18 63 -40 82 -48 l34 -16
-45 -50 c-25 -27 -60 -67 -77 -88 -33 -40 -47 -56 -107 -123 -19 -21 -52 -59
-74 -84 -72 -84 -141 -163 -151 -174 -6 -6 -37 -42 -70 -81 -33 -38 -64 -75
-70 -81 -5 -6 -32 -37 -60 -68 -27 -32 -59 -68 -70 -80 -11 -13 -45 -52 -75
-87 -30 -35 -64 -73 -75 -85 -11 -11 -35 -39 -53 -61 l-32 -41 45 -48 44 -49
28 26 c15 14 50 46 76 70 27 24 68 62 91 84 24 22 82 76 130 120 48 43 114
104 146 135 33 30 91 84 131 120 39 36 90 83 114 105 24 22 82 76 130 120 48
44 106 97 128 119 214 199 238 218 262 210 61 -22 304 -37 610 -38 296 0 675
17 830 39 22 3 67 8 100 10 33 3 76 7 95 9 19 2 62 7 95 10 33 3 71 8 85 11
14 2 48 6 75 9 46 4 79 9 160 21 17 3 47 7 68 10 20 3 54 8 75 11 20 3 53 7
72 10 19 2 60 9 90 14 30 5 71 12 90 14 19 3 49 7 65 10 17 3 46 8 65 11 19 3
96 17 170 30 74 13 149 26 165 29 17 3 75 14 129 25 55 11 103 18 107 15 4 -2
10 0 13 5 3 5 27 12 53 16 27 5 55 10 63 12 8 2 26 6 40 8 14 2 59 11 100 20
41 9 84 19 95 21 11 2 30 6 43 8 12 3 25 7 30 9 4 3 25 8 47 11 22 4 48 9 57
12 9 3 25 6 35 8 10 2 61 14 113 27 52 12 102 23 110 24 8 1 22 5 30 8 13 5
157 41 213 53 38 9 52 12 52 14 0 1 7 3 15 5 8 1 69 17 135 34 66 18 129 35
140 37 11 3 27 7 35 9 8 2 15 4 15 5 0 1 7 3 15 5 93 19 699 203 897 272 40
13 78 26 85 27 7 2 26 8 41 14 16 7 32 12 36 12 5 0 30 9 57 19 50 20 87 33
91 32 2 0 23 8 48 19 25 11 48 19 50 19 7 -1 109 38 280 105 72 28 133 51 138
52 4 1 10 3 15 4 4 1 10 2 15 1 4 0 7 4 7 9 0 6 9 10 20 10 11 0 20 4 20 8 0
5 6 9 13 9 6 0 35 10 62 23 28 13 56 23 63 23 6 0 12 4 12 9 0 4 4 8 9 8 5 0
22 5 38 12 15 6 31 11 36 10 4 -1 7 3 7 8 0 6 9 10 20 10 11 0 20 4 20 8 0 5
6 9 13 9 21 1 398 184 544 264 96 52 196 110 233 134 19 12 67 42 105 66 39
24 72 47 73 51 2 5 8 8 13 8 9 0 187 128 215 154 7 6 31 27 55 46 112 89 294
289 303 333 2 7 5 19 9 27 3 8 8 24 12 35 13 35 19 107 19 220 -1 116 -10 205
-31 285 -3 14 -7 32 -9 40 -1 8 -4 24 -7 35 -3 11 -8 34 -12 50 -8 37 -83 282
-95 310 -5 11 -16 39 -26 63 -10 23 -21 42 -24 42 -4 0 -41 -25 -83 -54 -127
-92 -406 -276 -417 -276 -5 0 -10 -4 -10 -9 0 -5 -13 -14 -30 -21 -16 -7 -30
-16 -30 -21 0 -5 -5 -9 -10 -9 -6 0 -38 -18 -71 -40 -33 -22 -62 -40 -64 -40
-3 0 -40 -22 -83 -50 -43 -27 -84 -50 -90 -50 -5 0 -12 -4 -14 -9 -1 -5 -48
-34 -103 -65 -55 -31 -107 -61 -115 -66 -100 -59 -120 -69 -120 -62 0 4 -4 3
-8 -3 -4 -5 -16 -15 -27 -21 -137 -74 -187 -101 -288 -153 -65 -33 -123 -64
-130 -68 -7 -4 -14 -8 -17 -9 -3 0 -48 -21 -100 -47 -52 -26 -100 -47 -107
-47 -6 0 -13 -3 -15 -7 -1 -5 -19 -15 -38 -24 -19 -9 -55 -26 -80 -37 -25 -11
-81 -37 -125 -58 -44 -20 -86 -37 -92 -37 -7 0 -13 -3 -13 -7 0 -5 -60 -31
-80 -35 -3 -1 -31 -13 -63 -28 -32 -15 -59 -27 -61 -27 -3 0 -26 -10 -53 -22
-26 -12 -50 -22 -53 -22 -7 -2 -118 -46 -155 -62 -28 -12 -144 -57 -155 -59
-3 -1 -18 -7 -35 -14 -137 -57 -639 -225 -870 -292 -77 -22 -147 -43 -155 -46
-22 -9 -11 -6 -295 -78 -286 -73 -289 -74 -325 -80 -14 -3 -52 -12 -85 -20
-33 -9 -80 -20 -105 -25 -25 -6 -54 -12 -65 -15 -24 -6 -56 -13 -115 -25 -48
-10 -60 -13 -130 -29 -25 -5 -61 -13 -80 -16 -42 -7 -207 -41 -270 -55 -25 -5
-62 -13 -84 -16 -21 -3 -48 -8 -60 -10 -11 -2 -32 -6 -46 -9 -14 -3 -36 -7
-50 -10 -14 -3 -38 -7 -55 -10 -16 -3 -52 -10 -80 -15 -75 -14 -117 -22 -150
-26 -16 -2 -41 -6 -55 -9 -25 -5 -54 -10 -127 -20 -21 -3 -45 -7 -53 -10 -13
-3 -49 -10 -115 -20 -11 -1 -47 -6 -79 -10 -33 -4 -64 -8 -70 -10 -6 -1 -33
-5 -61 -9 -27 -4 -61 -10 -75 -12 -14 -3 -41 -7 -60 -9 -75 -9 -127 -15 -165
-21 -22 -4 -51 -7 -65 -9 -14 -1 -50 -6 -80 -10 l-55 -7 31 29 c18 15 74 67
125 114 52 48 108 99 124 114 17 15 59 55 95 89 37 33 119 111 184 171 65 61
133 124 150 140 18 17 79 73 135 125 173 159 327 303 446 414 64 60 98 78 150
79 41 0 112 -32 147 -66 31 -31 107 -67 142 -67 61 0 98 23 171 106 39 43 77
85 85 94 21 23 74 82 155 175 39 43 77 86 85 95 31 34 98 108 170 190 41 46
82 91 90 100 8 9 42 47 75 84 33 38 71 81 85 96 14 15 54 61 90 101 36 40 72
80 80 89 8 9 46 52 84 96 39 43 81 91 95 105 15 15 37 39 50 55 30 37 161 184
181 204 8 8 46 51 85 95 38 44 76 87 85 96 14 15 50 55 195 219 31 36 61 67
66 68 5 2 9 8 9 13 0 5 17 26 38 47 20 21 66 72 102 112 36 41 76 87 90 101
14 15 48 53 75 84 28 32 61 70 75 85 14 15 48 53 75 85 28 31 61 69 75 84 109
118 183 206 182 215 -1 3 5 21 13 39 17 42 13 139 -8 188 -22 50 -74 102 -197
194 -58 44 -109 83 -115 88 -72 61 -258 190 -290 201 -49 16 -167 17 -210 2z
m-4250 -5126 c38 -15 95 -71 115 -114 37 -79 11 -190 -59 -245 -143 -113 -347
-19 -354 162 -6 148 152 252 298 197z"/>
</g>
</svg>
